inDegrees=yes
name=ik_lifting_orientations
DataType=double
version=3
OpenSimVersion=4.5-2024-01-10-34fd6af
endheader
time	pelvis_tilt	pelvis_list	pelvis_rotation	pelvis_tx	pelvis_ty	pelvis_tz	hip_flexion_r	hip_adduction_r	hip_rotation_r	knee_angle_r	knee_angle_r_beta	ankle_angle_r	subtalar_angle_r	mtp_angle_r	hip_flexion_l	hip_adduction_l	hip_rotation_l	knee_angle_l	knee_angle_l_beta	ankle_angle_l	subtalar_angle_l	mtp_angle_l	lumbar_extension	lumbar_bending	lumbar_rotation	arm_flex_r	arm_add_r	arm_rot_r	elbow_flex_r	pro_sup_r	wrist_flex_r	wrist_dev_r	arm_flex_l	arm_add_l	arm_rot_l	elbow_flex_l	pro_sup_l	wrist_flex_l	wrist_dev_l
1.29	-1.547910895995327	0.9876663432806578	-96.73609637845625	0	0.9399999998679526	0	36.91051978043559	-10.24151620763349	0	61.42462862486229	1.072062011318604	-5.131143579891433	0	0	36.91051978043559	-10.24151620763349	0	61.42462862486229	1.072062011318604	-5.131143579891433	0	0	3.059259533974088	2.267939809706469	-1.442341360573643	134.1918847454809	35.88265060917835	-67.99271244286004	36.53778058018236	1.145654368306716	0	0	0	-7.850109023393697	0	90.07533623831652	1.145654368306716	0	0
1.3	-0.8515621494058385	-0.4079611096685984	-95.55078227303477	0	0.9399999998679526	0	36.9152591160998	-10.24102896030928	0	61.42397949513976	1.072050681867673	-5.130798725016926	0	0	36.9152591160998	-10.24102896030928	0	61.42397949513976	1.072050681867673	-5.130798725016926	0	0	1.780277567268806	1.395512271088089	-2.5848467767975	136.2420369812262	34.14623732229614	-69.36040097541671	32.60860713007258	1.145192275331616	0	0	0	-7.852241659699203	0	90.07530582897779	1.145192275331616	0	0
1.31	-0.8560722605056308	-0.4001873942450132	-95.5545211734799	0	0.9399999998679526	0	36.92758018832171	-10.23977194183957	0	61.42228927521109	1.072021181964835	-5.129911704110599	0	0	36.92758018832171	-10.23977194183957	0	61.42228927521109	1.072021181964835	-5.129911704110599	0	0	1.372047800633432	1.839293187014392	-1.589974580848266	136.7982027476305	33.02122375623294	-67.89875629376228	30.11789092321757	1.143989628724796	0	0	0	-7.857795212245783	0	90.07522668534008	1.143989628724796	0	0
1.32	-0.8368123426449185	-0.4031378571610887	-95.55481225887485	0	0.9399999998679526	0	36.93166779356091	-10.23935298902686	0	61.42173000168071	1.072011420800311	-5.129615706145269	0	0	36.93166779356091	-10.23935298902686	0	61.42173000168071	1.072011420800311	-5.129615706145269	0	0	1.510209323144909	0.8091885471121685	-1.094805129432572	137.1704755765309	31.43814594088844	-68.26902675544324	28.90264514474038	1.143591056151639	0	0	0	-7.859634457649451	0	90.07520045613752	1.143591056151639	0	0
1.33	0.1440786282333958	-0.4018303123467296	-96.11594732747295	0	0.9399999998679526	0	36.93560362725585	-10.23894906403262	0	61.42119250388064	1.072002039693977	-5.129330324835543	0	0	36.93560362725585	-10.23894906403262	0	61.42119250388064	1.072002039693977	-5.129330324835543	0	0	0.1256850990598934	-0.5921245838453447	-0.9480827704261606	138.7602139185763	31.24465692836717	-68.90795334853595	27.95273401595484	1.143207528265032	0	0	0	-7.861403333139812	0	90.07517521700592	1.143207528265032	0	0
1.34	0.1410659682270048	-0.3887305200469203	-96.10451365021069	0	0.9399999998679526	0	36.94021647895463	-10.23847658632825	0	61.42056209886266	1.071991037050792	-5.128996738359398	0	0	36.94021647895463	-10.23847658632825	0	61.42056209886266	1.071991037050792	-5.128996738359398	0	0	0.1260360273663626	-0.5934043795992128	-0.9532732794325669	139.6550005852586	30.6556869211399	-69.50755429690838	24.54203479512829	1.142757843999623	0	0	0	-7.863477900346812	0	90.0751456242569	1.142757843999623	0	0
1.35	0.1306506650442009	-0.3710190260333741	-96.10437553618461	0	0.9399999998679526	0	36.94370405627168	-10.23811966545226	0	61.42008560650513	1.071982720690293	-5.128744858523413	0	0	36.94370405627168	-10.23811966545226	0	61.42008560650513	1.071982720690293	-5.128744858523413	0	0	-1.377416567912743	-0.9853003230232673	-1.382008664401989	142.010018778318	30.14243644412135	-69.99195355097891	21.70869173591872	1.142417852357073	0	0	0	-7.865046354301654	0	90.07512325014143	1.142417852357073	0	0
1.36	0.1330945565456683	-0.3649277355485506	-96.097027584361	0	0.9399999998679526	0	36.94717447265545	-10.23776652509805	0	61.41960957463784	1.071974412366864	-5.128495992024768	0	0	36.94717447265545	-10.23776652509805	0	61.41960957463784	1.071974412366864	-5.128495992024768	0	0	-1.359597238947148	-0.99707016141817	-1.393029532098778	143.0999916515063	29.56651817881703	-70.25356705895548	19.07841960307089	1.142078959431269	0	0	0	-7.866611744365157	0	90.07510094829851	1.142078959431269	0	0
1.37	0.2498340695361445	-1.227799596577503	-96.07118055121232	0	0.9399999998679526	0	36.95613230893665	-10.2368591342326	0	61.4183811158891	1.071952971716974	-5.127857869220985	0	0	36.95613230893665	-10.2368591342326	0	61.4183811158891	1.071952971716974	-5.127857869220985	0	0	-1.449117600732423	-0.9927405123198999	-1.272192033776745	142.0418329122824	28.8988842036768	-69.34461790898708	17.0032729073774	1.141203964168962	0	0	0	-7.870653337231162	0	90.0750433666602	1.141203964168962	0	0
1.38	0.2302015409773706	-1.2114088321895	-96.03620564923074	0	0.9399999998679526	0	36.95816386059283	-10.23665571759011	0	61.41809947454315	1.071948056148177	-5.127715097181508	0	0	36.95816386059283	-10.23665571759011	0	61.41809947454315	1.071948056148177	-5.127715097181508	0	0	-0.680691272166706	-0.7366008631611055	-1.04461508275918	141.7705321383177	28.18395959011173	-69.23473879520051	15.08347485406297	1.141004659005022	0	0	0	-7.871577140864458	0	90.07503025074884	1.141004659005022	0	0
1.39	0.2649598559638768	-1.988368306664428	-95.86272617339216	0	0.9399999998679526	0	36.9609731989998	-10.23636979869002	0	61.41771532428266	1.071941351461309	-5.127513787887827	0	0	36.9609731989998	-10.23636979869002	0	61.41771532428266	1.071941351461309	-5.127513787887827	0	0	-1.454127940383712	-0.8585281851027892	-1.179608718715181	142.0254848341705	28.34912301041717	-69.50776202676613	13.53436178128062	1.140730554312008	0	0	0	-7.872842249714441	0	90.07501221249655	1.140730554312008	0	0
1.4	0.280268925709348	-1.989275029870911	-95.85796464041732	0	0.9399999998679526	0	36.96360441019903	-10.23610430706864	0	61.41735319429572	1.071935031100717	-5.127327220533216	0	0	36.96360441019903	-10.23610430706864	0	61.41735319429572	1.071935031100717	-5.127327220533216	0	0	-0.871689373916155	0.3283171749456631	-1.549261277539171	141.7311329132288	29.72553513296248	-68.9912934684	12.75284682623772	1.140473139244939	0	0	0	-7.874032770379027	0	90.07499527251593	1.140473139244939	0	0
1.41	0.2941916185857406	-1.975424071848574	-95.85512972088432	0	0.9399999998679526	0	36.96639508965639	-10.23582169743156	0	61.41697053222232	1.071928352387614	-5.127128522551439	0	0	36.96639508965639	-10.23582169743156	0	61.41697053222232	1.071928352387614	-5.127128522551439	0	0	-0.07790924595093443	0.5207998864135405	-1.26870594179786	140.7346677867891	29.72923118864144	-68.56009107503913	12.77721442111322	1.140200504717924	0	0	0	-7.875292266625336	0	90.07497733099278	1.140200504717924	0	0
1.42	1.28171548865329	-1.966988398019375	-96.39535011834229	0	0.9399999998679526	0	36.9701734336185	-10.23544283838711	0	61.41644835303946	1.071919238641587	-5.126862707987733	0	0	36.9701734336185	-10.23544283838711	0	61.41644835303946	1.071919238641587	-5.126862707987733	0	0	0.4493902867877267	-0.8629511991512092	-1.658233221126439	141.0753686452693	30.1829558137409	-70.24720595538935	12.78429910705104	1.139830185396637	0	0	0	-7.877007328451818	0	90.07495296096673	1.139830185396637	0	0
1.43	1.26027011714826	-1.963802824077254	-96.41570051176086	0	0.9399999998679526	0	36.98984609268155	-10.2337565671921	0	61.41371354188865	1.071871507182586	-5.125754378824635	0	0	36.98984609268155	-10.2337565671921	0	61.41371354188865	1.071871507182586	-5.125754378824635	0	0	0.4664022800689849	-0.827129030154331	-1.629845890588841	141.046113526649	30.18350686997441	-70.22849323928305	12.78413619339812	1.137862443395991	0	0	0	-7.886207819993017	0	90.07482346486076	1.137862443395991	0	0
1.44	1.381405171296674	-2.802335475369293	-96.35457945897448	0	0.9399999998679526	0	36.99741627093845	-10.23299586124658	0	61.41267614718711	1.071853401229401	-5.125221317461752	0	0	36.99741627093845	-10.23299586124658	0	61.41267614718711	1.071853401229401	-5.125221317461752	0	0	1.117998327863412	-0.624504583076288	-1.225939085441489	139.2212517157573	30.25333910417324	-69.5098403682867	12.78836387520862	1.13712236749135	0	0	0	-7.889627222029797	0	90.07477476193972	1.13712236749135	0	0
1.45	1.384555124728442	-2.807442900770472	-96.38350599812223	0	0.9399999998679526	0	36.99910708792731	-10.23282555827462	0	61.41244470469553	1.071849361795894	-5.125101899467801	0	0	36.99910708792731	-10.23282555827462	0	61.41244470469553	1.071849361795894	-5.125101899467801	0	0	1.119690886140063	-0.6390015607911355	-1.194781230609436	139.5100760753065	30.36300777349413	-69.66015145622626	13.67345875075754	1.136957143019922	0	0	0	-7.890390412307873	0	90.07476388884909	1.136957143019922	0	0
1.46	2.36909332466924	-2.812251347640447	-96.89084805803083	0	0.9399999998679526	0	37.00256524215867	-10.23247728521726	0	61.41197147209903	1.071841102328957	-5.124857723000152	0	0	37.00256524215867	-10.23247728521726	0	61.41197147209903	1.071841102328957	-5.124857723000152	0	0	1.088382117080872	-0.5768963182487152	-1.148324822975252	140.3967131358155	30.27949361777081	-70.32867888852694	12.31418978295163	1.136619232292867	0	0	0	-7.89195118261881	0	90.07474165162306	1.136619232292867	0	0
